<?xml version="1.0" encoding="UTF-8"?>
<svg id="Layer_1" xmlns="http://www.w3.org/2000/svg" version="1.1" viewBox="0 0 245.1 245.1">
  <!-- Generator: Adobe Illustrator 30.5.1, SVG Export Plug-In . SVG Version: 2.1.4 Build 3)  -->
  <defs>
    <style>
      .st0 {
        fill: #ae2526;
      }

      .st1 {
        fill: #173053;
      }

      .st2 {
        fill: #f5e7d4;
      }
    </style>
  </defs>
  <path class="st2" d="M43.1,200.8C3.3,160.4.2,96.4,35.9,52.3c6.8-8.4,14.8-15.8,23.8-21.9,40.4-27.6,94-25.6,132.3,4.8,5.3,4.2,10.2,8.9,14.7,14,38.1,43.7,36.4,109.2-3.9,150.8-1.9,2-4,3.9-6.1,5.8-41.9,37.3-104.9,37.7-147.2,1-2.2-1.9-4.4-3.9-6.4-6Z"/>
  <path class="st1" d="M122.6,11c24.6,0,49.2,8.1,69.4,24.2,5.3,4.2,10.2,8.9,14.7,14,38.1,43.7,36.4,109.2-3.9,150.8-1.9,2-4,3.9-6.1,5.8-21.1,18.8-47.6,28.2-74.2,28.2s-52.1-9.1-73.1-27.3c-2.2-1.9-4.4-3.9-6.4-6C3.3,160.4.2,96.4,35.9,52.3c6.8-8.4,14.8-15.8,23.8-21.9,19-13,41-19.4,62.9-19.4M122.6,0v11V0c-24.7,0-48.6,7.4-69.1,21.3-9.8,6.7-18.6,14.8-26.1,24.1-39.3,48.5-35.9,118.7,7.9,163.2,2.3,2.3,4.6,4.5,7.1,6.6,22.3,19.3,50.8,29.9,80.3,29.9s59-11,81.5-31c2.3-2,4.5-4.2,6.6-6.4,21.4-22.1,33.6-51.3,34.4-82,.8-30.8-9.9-60.5-30.1-83.7-4.9-5.6-10.3-10.8-16.1-15.4C177.2,9.4,150.2,0,122.6,0h0Z"/>
  <path class="st0" d="M35.9,52.3c6.8-8.4,14.8-15.8,23.8-21.9,0,1.3,0,1.3-.8,2.3-2.7,3.4-4,6.7-5.5,10.8.8,1.2,1.7,2.4,2.6,3.6,1.9-3.6,4.2-7.1,7.9-9.1,1.9-.1,1.1-.4,2.6.8.1.4.2.8.3,1.2-2.5,4.9-4.9,6.9-7.2,12.3l3.4,5.4c2.2-3.7,4.8-8.1,9.2-9.3,1.5.6,1,0,1.6,1.6-.5,4.4-5.8,9.8-8.1,14.3,1,2.2,1.9,4.5,2.7,6.7,3.1-3.9,6-8.5,11.4-8.5,3.8,2.4-6.4,11.8-8.5,14.9l-.4.6,2.7,8c2.5-3,7.6-8.1,11.7-8,1.2.9,2.2,3.3,1.4,4.2-3.6,4-7.7,7.1-11.4,11.1.2,2.8.7,6.2,1.1,9,3.4-3,8.5-8.3,13.3-6.4,1.3,1.5.9.7,1,2.7-1.4,3-10.3,8.5-13.5,10.9.3,2.4.4,6.3.6,8.8,3.7-2.3,10.4-6.9,14.7-4.3v1.3c-2.1,4.9-9.9,7.8-14.9,10.2l-.4,9.1c4.3-1.7,11.2-4.6,15.5-2.1,1.7,4.9-12.6,8-16,9-.8,3.6-1,5.9-1.4,9.6,3.7-1.2,11.4-3.9,14.4-.8.5,1.6.5,1.5,0,3.1-1.8,2.4-12.7,3.8-16.1,4.4l-2.1,8.4c4.5-.1,11-.8,14.6,2.4.4,4.7-13.7,4.4-16.9,4.5l-2.9,6.8c4.1.8,11.9,1.1,14.2,5.1-.9,4.6-13.9,1.8-17.1,1.3-1.2,1.7-2.2,3.6-3.2,5.5,3.7,1.7,11.1,2.6,12.9,5.9,0,1.9.3,1.1-.7,2.5-5.4,2.1-13.9-4-17.4-.6-.8,6.2,14.7,4.3,10.4,11-3.8,1.4-11.4-3.5-15.8-3.7-2.2-1.9-4.4-3.9-6.4-6,0-3.6-5.3-10.1-3.4-14.9l.8-.3c3.3,1,5.2,6.4,7.9,10l.4.6,2.7-4.4c-2.2-2.8-8.1-10-5.6-13.6h1.3c3.8,2.2,5.2,4.8,7.8,8.4l2.9-5.5c-2.4-3-8.5-9.6-7-13.6l1-.3c3.9,1.5,6,4.7,8.8,8l2.7-6.3c-1.9-2.2-11.1-10.6-7.8-13.4,4.1.3,7,3.6,9.9,6.3l2.6-7.4c-3-2.3-12.1-8.5-10.3-12.6,3.3-.8,9,3.9,11.6,5.7l1-8c-2.6-2.1-13.6-7.2-12.3-10.7,4-1.5,9.4,1.3,13,3l.2-8.1c-4.1-1.9-12-3-13.6-7.1,1.5-3.4,10.8-1,13.6-.2,0-2.7-.4-5.3-.6-8-4.3-1.2-7.7-1.1-11.9-2.2-1.2-.3-1.3-1.6-1.5-2.6,1.7-4.7,8.6-2.8,12.5-2-.3-2.6-.6-4.6-1.2-7.3-3.1-3.6-11.5,1.3-13.8-3.2,1.2-5.2,7.7-4.6,12-4.7l-2.5-7.6c-.2,0-.3,0-.5,0h-.8c-4.6.2-5.7,1.3-10,2.2-1.5-.6-.9,0-1.8-1.5,0-5.3,6.4-6,10.6-6.8l-2.5-6.3c-4.6.9-9.2,3.7-11.9,3.3l-.6-.9c.7-5.5,5.2-6.7,9.7-7.8-1.1-1.8-1.2-2.2-2.8-3.6-5.4-1.8-7.4,2.9-11.5,4.7-3.2-5.9,6.8-9.2,7.1-12-5.2-5.6-7.4,2.7-11.3,4.4-1.7-.5-.9,0-2.1-2Z"/>
  <path class="st0" d="M168.1,121.3c-3.8,2-10.4,6.5-14.3,3.9-.7-1.5-.7-1.4-.4-2.9,1.9-2.8,11.5-6.9,15-8.6.2-2.9.4-5.9.6-8.8-4.2,1.4-11.1,4.1-15.2,1.5-1.1-5,12.5-7.7,16.1-8.6l1.5-9.1c-3.8.9-11.9,3-14.8-.3-.1-4.8,13.1-6,16.7-6.4.6-2.5,1.6-5.5,2.3-8-2.9,0-14.2.7-14.7-3.4,3.2-3.7,12-3.1,16.8-3.2l2.9-6.5c-3.4-.7-12.9-1.1-13.3-5.3,3-3.2,12.2-1.4,16.3-.9l2.5-4.5c-5.5-2.5-7.9-1.9-12.6-6.2l.2-1.7c5.5-1.3,15,3.8,18.2.2-.4-3.2-7.4-3.6-10.8-6.9-.6-1.8-.6-.9.2-2.8,2.2-1.1,7.9,1.5,10.7,2.4,5.3,4.2,10.2,8.9,14.7,14,.5,2.5.8,3.4.7,6-.9,1.6-.3,1.1-1.8,1.8-2.9-.7-4.4-6.3-7-9.3-1.9.1-3.1,2.4-2.9,2.8,2.1,3.2,7.3,8.4,4.8,12.9l-1.2.3c-3.8-1.5-5.2-4.8-7.4-8.4l-3.1,4.5c2.6,3.1,8.7,9.7,6.6,14h-1.1c-4.1-1.9-5.5-4.6-8.3-8.3-.9,2.1-1.7,4.5-2.5,6.7,2.3,2.8,10.8,9.5,8.5,13.6-3.7.4-8.5-4.8-10.9-7.3-.7,2.4-1.4,4.7-2.1,7.1,3.6,3,11.1,7.2,10.2,12.1-3.2,3-9.4-3.2-11.9-5.5-.4,2.8-.9,5.8-1.4,8.6,3.5,1.9,12.3,5.9,11.4,10.6-3.1,2.1-9.5-2.1-12.2-3.9l-.5,8.9c3.2,1.1,14.5,4.2,12.7,8.6-4.3,1.8-8.9-.3-12.9-2,0,2.9.2,5.8.3,8.7,4.2.7,12,1.3,14,5.3l-.4,1c-4,2.4-8.8,1.1-13,.2l1.4,8.8c4.1.4,8.6,0,12.3.7,1.4,1,.9.4,1.4,2-1.6,4.7-8.4,3.8-12.3,3.4.5,2.7,1.2,5.4,1.8,8.1,6.2.2,6.1-.5,11.9-1.2,1.5.7.9.1,1.6,1.8-.8,5.1-7.2,5.3-11.4,5.6.7,2.5,1.8,4.9,2.8,7.3,5.8-1.1,7.8-3,11.4-3.7,1.3,1,.7.4,1.2,2.3-.9,4.7-6.7,6-10.7,6.7,6.4,11.7,11.2-.4,15.1.6,1,1.5,1,1.4,1,3.2-1.6,3.8-5.3,4.1-8.5,7.2-.3,1.7-.4.9.7,2.5,5.2,2.1,8.4-5.6,12.8-5.4l.6,1.1c-.6,5.6-5.5,6.7-6.6,9.9l.9,1.3c-1.9,2-4,3.9-6.1,5.8-1.4-1.3-1.6-1.9-3-2-2.2,3-5.6,10.6-10.5,7,.4-1.8,2.2-3.1,3.4-4.8,1.7-2.3,2.7-4.3,4-6.9-.9-1.9-2-3.7-3.1-5.5-1.9,3.8-5.3,11.2-10.5,8.7l-.4-1.1c1-2.3,5.5-8.8,7.3-11.8l-2.8-6.8c-2.1,3-6,9.4-10.1,8.9-1.6-1.2-1.1-.5-1.7-2.4,1.3-2.6,6.8-9.5,8.9-12.8-.8-2.3-1.8-4.7-2.7-7-.6.8-1.3,1.5-2,2.3-2.2,2.5-5.3,5.9-8.7,6-1.6-.9-1-.3-1.8-2.1.1-2.7,8-10.4,10.4-13.2l-1.8-9c-1.1,1.1-2.3,2.3-3.5,3.3-2.2,2-5.3,4.4-8.4,4.2-1.6-1.2-1-.4-1.7-2.4.6-3,8.9-9.2,12.2-12.4-.8-3.2-1-5.5-1.3-8.7-.3.2-.5.4-.8.6-3.2,2.4-7.9,6.2-12,5.5-3.9-3.4.9-6,3.7-7.9,2.8-1.9,5.7-3.8,8.5-5.7v-9Z"/>
  <path class="st1" d="M103.7,93.2s0,0,0,0c.6,0,1.1,0,1.7,0,.6,0,1.1.3,1.7.6,4.1,2.3,39.5,23.7,41.2,25.9.8,1.1,1.1,2.7.8,4.1-.3,1.2-1.3,2.3-2.3,3.1-3.8,3.1-12,7.6-16.5,10.3-7,4.1-13.8,8.7-20.8,12.8-2.2,1.3-4.5,2.9-7.3,1.3s-.9-.7-1.3-1.1c-.8-1.1-.9-2.2-1-3.4-.3-5.8-.3-48.8.4-50.7.6-1.5,2.1-2.2,3.4-2.9Z"/>
</svg>