<?xml version="1.0" encoding="UTF-8"?>
<svg id="Layer_1" xmlns="http://www.w3.org/2000/svg" version="1.1" viewBox="0 0 836.5 655.1">
  <!-- Generator: Adobe Illustrator 30.5.1, SVG Export Plug-In . SVG Version: 2.1.4 Build 3)  -->
  <defs>
    <style>
      .st0 {
        fill: #162f53;
      }

      .st1 {
        fill: #ad2425;
      }

      .st2 {
        fill: #f6e8d4;
      }
    </style>
  </defs>
  <path class="st0" d="M260.5,279.5c-5.9-11.4-9.7-19.4-13.9-31.5-16.6-48.1-13.4-100.9,9-146.6,21.7-43.6,59.9-76.8,106.1-92.3,44.6-14.7,93.1-11.4,135.2,9.4,43.2,21.3,76.2,59.1,91.5,104.8,18.1,53.5,11.8,103.2-12.9,153,18.8-.7,43.5-3.5,62.4-5.5,42-4.2,83.9-9.4,125.7-15.4,18.4-2.6,36.8-5.5,55.3-7.9,21.4-2.8,17.3,20.7,17.2,34.5v43.2s0,116.6,0,116.6c0,16.8,0,33.7.1,50.5,0,2.2-.6,5.4-1.6,7.3-2.3,4.1-4.9,5.2-9.2,6.4-8.8-1.9-17.7-4.3-26.6-6.3-23.7-5.3-47.6-9.9-71.7-13.7v19.5c20.6,2.6,55.8,10.3,75.8,15.6-15.9,17.5-31.8,36-47.4,53.8,9.3,16.6,18.6,33.2,27.7,50,5.1,9.3,11.5,20.4,16.1,29.8-38.3-8.5-84.2-15.9-123.1-21.1-212.7-27-428.4-19.7-638.7,21.7,13.8-25.9,28.9-53.9,43.7-79.2-16-17-31.4-35.8-47.4-52.6,22.9-5.3,43.5-10.6,66.8-14.6v-17.2c-20.3,3.5-40.6,8.2-60.8,12.3-8.3,1.7-16.5,4-24.9,5.5-3.6.6-6.6.3-9.6-1.9-2.4-1.8-5-5.6-5.1-8.7-.4-8.8-.2-18.2-.2-27v-53s0-95,0-95c0-16.5,0-33,0-49.5.3-3.4.2-8.1,2.1-10.9.4-.6,1.5-1.7,1.9-2.1,2.8-2.9,6.2-3.4,10.2-3.1,7.7.6,15.5,1.7,23.2,2.7,14.3,1.8,28.6,3.4,42.9,5,41.5,4.4,83.1,8,124.7,10.8,17.9,1.2,37.5,2.7,55.4,3Z"/>
  <path class="st1" d="M100.6,517.7c32-5.8,67.1-9.7,99.5-12.9,75.4-7,151.1-10.5,226.9-10.3,51.6-.2,103.2,1.2,154.8,4.2,50.1,3,95.7,7,145.3,15.5v-9c20.6,2.6,55.9,10.3,75.8,15.6-15.9,17.5-31.8,36-47.4,53.8,9.3,16.6,18.6,33.2,27.7,50,5.1,9.3,11.5,20.4,16.1,29.8-38.3-8.5-84.2-15.9-123.1-21.1-212.7-27-428.4-19.7-638.7,21.7,13.8-25.9,28.9-53.9,43.7-79.2-16-17-31.4-35.8-47.4-52.6,22.9-5.3,43.5-10.6,66.8-14.6v8.9Z"/>
  <path class="st2" d="M276.7,516.3c1.3-.2,3.9-.2,5.3-.2,0,5.6,0,11.4,0,17-2.5,0-4.8.3-7.3.6-5.1,23.2-11.3,47-16.7,70.2-8.3.4-17.4,1.5-25.7,2.4-3.7-13.6-7.2-27.6-11.2-41l-11.3,43.7c-8,.8-18,2-25.9,3.3-6.2-21-11.9-45.7-17.6-67.2l-7.7,1.2v-15.8s.1-1.1.1-1.1c1.5-1.3,32.8-4.9,36.9-5.4v17.4c-2.2.2-4.6.6-6.9.9,2.9,13.7,6.4,27.5,9.4,41.1,5.4-19.9,9.5-40.8,14.8-60.7,6.2-.6,12-1.2,18.2-2.1,3.6,18.2,9.5,38.8,13.8,57.2l8.6-42.4-6.4.6v-17.4c9.6-.5,20-1.6,29.6-2.4Z"/>
  <path class="st2" d="M590.6,516.9c11.3.5,24.7,1.8,36,2.9v17.3c-2.3,0-4.7-.2-7-.4v16.7c6.8.3,19.6,1.8,26.4,2.8v-17c-2.4-.1-4.8-.4-7.2-.6v-17.6c0,0,35.9,4.2,35.9,4.2v17.4s-6.8-.8-6.8-.8v52c-.1,0,6.8,1,6.8,1,0,5.7,0,11.4,0,17-10.7-1.8-24.8-3.2-35.8-4.4v-17.2c2.4.2,4.8.6,7.2.9v-18.1c-6.7-1.1-19.7-2.3-26.4-2.7v17.9c2.5.1,4.5.5,6.9.8v16.8c-10.2-1.5-25.6-2.5-36-3.1v-17s7.5.2,7.5.2v-51.5c-2.4-.3-5-.4-7.4-.6v-17.1Z"/>
  <path class="st2" d="M349.8,512.3h2c.3,0,.6.2.9.4,6.9,18.8,16.5,49.5,22.6,67.2h7.3s0,16.2,0,16.2c-12.1,0-23.8.6-35.9,1,0-5.3,0-10.7,0-16l5.8-.3c-.8-2.5-1.7-5.2-2.6-7.7-7.5,0-15.8.6-23.3,1.1l-1.9,4.8c-.5,1.3-.6,1.2-.5,2.5,1.7.9,3.5.5,5.7.5v16c-10.8.2-24,1.3-34.9,2.1v-16.5c2.4,0,5-.3,7.5-.5,1.2-4.9,4.3-13.4,5.9-18.4,3.8-11.4,7.6-22.8,11.5-34.2h-6.3c.2-5.5,0-11.3,0-17,11.6-.2,24.2-.9,35.9-1.3Z"/>
  <path class="st1" d="M338.4,537.9c1.7,1.7,6.3,17.3,7.2,20.4l-5.9.3-8.1.3c2.1-7,4.4-14,6.7-21Z"/>
  <path class="st2" d="M511.8,512.6l44,1.6,11.8,11.3v18.9c-7-.2-14.1-.5-21.1-.8v-12.1c-8.2-.5-17.7-.7-25.8-.9-.5,16.1-.1,34-.1,50.3,3.6.1,24.5,1.6,25.7.5l.2-1.9v-9.6c7.1.1,14.2.4,21.2.9,0,6.2,0,12.4,0,18.6-4.2,3.5-8.3,7.1-12.3,10.8-14.1-.9-30.2-1.9-44.3-2l-12.3-12v-61.7c4.3-4,8.6-8,13.1-11.8Z"/>
  <path class="st2" d="M396.5,511.3c25.9-.4,51.8-.3,77.7.3v28.3c-5.8,0-11.5-.1-17.3-.3l-.2-10.8h-10.6c0,0,0,33.4,0,33.4,0,3.3-.2,13.7.2,16.5l1.2.3,5.8.2v16.7c-11.9-.3-23.8-.4-35.7-.3v-16.6s7,0,7,0v-50.4s-10.4,0-10.4,0v10.9c-5.9,0-12.1,0-18.1.1,0-4.8-.4-25.2.4-28.4Z"/>
  <path class="st2" d="M303.4,282l8.3-8.2,2.5,8.8-10.8-.6Z"/>
  <path class="st2" d="M519.7,280.3c.5-1.6,1.1-3.4,1.7-5l5.1,4.7-6.8.3Z"/>
  <path class="st2" d="M28.7,289.6c22.2,2.6,45.8,3.7,68.2,6,5.8,6.4,11.5,12.8,17.2,19.3v51.9c0,0-9.1,9.9-9.1,9.9,3.1,3.1,6.2,6.2,9.1,9.4v55.3c-5.4,6.7-11.4,13.8-17,20.3-1.6.7-22,4.9-24.8,5.5-14.8,3.2-29.5,6.7-44.1,10.5v-27.7c3-.6,6.1-1.3,9.1-2v-127.4s-8.5-.5-8.5-.5v-30.5Z"/>
  <path class="st0" d="M80.6,390.3c5.2-.7,5.4.7,8.5,4.4v37.3c-1.8,2.7-2.8,3.9-4.9,6.3l-15,2.8-6.8,1.4c-.5-16,0-34.4,0-50.7l18.2-1.4Z"/>
  <path class="st0" d="M62.5,321.5c7.5.3,15.1.5,22.6.6,1.5,1.5,2.8,3.2,4.1,4.9v31.5c-.8,1.2-2,2.6-2.9,3.8-.1.1-.2.3-.3.4-2.1,2.2-19.3,2.2-23.4,2.3v-43.5Z"/>
  <path class="st2" d="M805.4,280.3h1.6c1.2,1.9.7,23.8.6,27.7-3.1.5-6.1.9-9.2,1.3-8,15.2-16.2,33.6-23.8,49.3,9.4,25.2,19.6,54.3,27.9,79.9,2.6.5,5.4.8,8,1.2v26.3c-11.6-2.6-27.4-4.7-39.4-6.9v-24.6s7,.9,7,.9c-5.2-16.3-11.8-33.9-17.6-50-11.7,21.9-8.8,22.2-8.6,46.6,2.6.5,5.5.8,8.2,1.1v21.7c0,1.7.2,1.1-.4,2.6-2.3.4-32.9-4.6-38.5-5.3v-23.2c2.3.2,4.9.3,7.1.4v-111.9s-7.6.8-7.6.8v-26.3c12.3-1.3,26.2-2.9,38.5-4.8v27c-2.6.1-5,.5-7.6.8-.2,14.4.2,28.7,0,43.1,7.3-15.3,14.7-30.6,22.3-45.8-2,.3-4.1.5-6.1.7v-27.3c12.1-1.1,25.6-3.5,37.8-5.1Z"/>
  <path class="st2" d="M678.5,296.3l6.2-.5c5,4.9,9.9,9.7,15,14.5-.2,20.8,0,42.1,0,63-3.9,4.7-9.1,9.9-13.3,14.4,3.6,12.9,7.7,25.8,11.5,38.7,3.1.4,6.5.7,9.6,1v23.3c-8.2-1.4-19.3-2.4-27.5-3.2-5.1-19.4-10.7-38.6-15.7-57.9-2.4,0-7.6-.5-9.4.5l-.2,1.3c-.2,10.4,0,21.2,0,31.6,2.6.3,5.4.5,8,.8v21.8c-12.6-1.6-26.8-2.3-39.6-3.5v-21s7.7.2,7.7.2v-96.1c-2.9.3-5.9.4-8.7.5,0-8.1,0-16.2,0-24.3,18.9-1.4,37.8-3,56.6-5Z"/>
  <path class="st0" d="M668,322.3c4.9-.6,5.1.6,8,4.1-.2,11.5,0,23.4,0,34.9l-4.1,4.7h-9.9s-7.6-.1-7.6-.1c-.5-13.4-.2-29.2,0-42.7,4.4-.1,9.3-.6,13.7-.9Z"/>
  <path class="st2" d="M156.7,302.5l39.1,3c2,12.2,5.1,26.2,7.6,38.5l15.6,77.1,8.3-.5v21.3c-13.1.8-26.5,2.7-39.7,4v-22c2.5-.2,4.9-.5,7.4-.8-1.2-4.5-2.3-10.2-3.3-14.9h-5.9c-5.9.6-12.7.9-18.6,1-1.4,5.5-2.7,11.6-4,17.1,2.9-.2,6-.5,8.9-.8v22.5c-13.6,2.1-27.5,3.8-41,6.4v-23.5c2.7-.4,5.3-.9,8-1.4,2.8-10.4,5.6-26.1,8.1-37l15.2-66.2-6.2-.2c0-7.7.3-15.8.5-23.5Z"/>
  <path class="st0" d="M179.9,352.5c1.4,1.9,6.7,29.7,7.5,33.6l-7.2.2c-2.6.2-5.3.2-7.9.3,2.6-11.3,4.9-22.8,7.6-34.1Z"/>
  <path class="st2" d="M573.3,305.3c1.8-.2,1.9-.2,3.7,0,2.2,3.4,22.9,104.7,24.9,114.4,2.5.3,5.5.3,8,.4v20.9c-12.1-1.3-26.5-1.8-38.8-2.5v-20.3c0,0,7.7.2,7.7.2-1.4-5-2.5-10-3.5-15l-22.5-.2c-1.1,3-2.7,10.5-3.4,13.9,2.5.2,5.2.3,7.8.5v20c-12-.9-25.4-1.3-37.5-1.7v-19.7s7.5.1,7.5.1c5.6-28.5,12.4-58.4,18.6-86.8l-7.8.2c-.3-7.2-.1-15.1-.2-22.4,11.9-.6,23.7-1.2,35.6-2Z"/>
  <path class="st0" d="M563.5,351.2c1.6,2.3,6.4,26.1,7.5,30.9h-6.2c0,0-8,0-8,0,1.8-10,4.5-20.8,6.7-30.9Z"/>
  <path class="st2" d="M490.3,309.3l6.9-.2c5.1,5.1,10,9.9,15.3,14.7v52.1c-5,4.8-10.1,9.5-15.2,14.2-10.2,0-20.4.1-30.7,0,0,8.3,0,16.6,0,24.9h8.3c0,0,0,19,0,19l-18.4-.4c-7.5-.2-15.1-.4-22.6-.4v-18.8c0,0,8.7-.1,8.7-.1.3-27,0-54.4,0-81.4h-8.8c0-7.4,0-14.7,0-22.1,18.8-.5,37.6-.7,56.4-1.5Z"/>
  <path class="st0" d="M479.9,331.8c5.3-.5,5.5-1,9.3,3v31c0,0-3.8,3.8-3.8,3.8h-9.9c0,.1-8.8.3-8.8.3-.2-12.4,0-25.3,0-37.8,4.4,0,8.9,0,13.3-.3Z"/>
  <path class="st2" d="M243.1,308.6c14.5.7,28.9,1.2,43.4,1.5-.1,7.4-.1,15-.2,22.5l-9.2-.3v84.3c7.3-.7,14.7-1.3,22-2v-17.5c7.4-.1,14.7-.3,22.1-.5v22.9s0,15.7,0,15.7c-10.4.8-22,1.1-32.6,1.8-15.2,1-30.5,2.1-45.7,3.3v-21.1c3-.3,6-.5,9-.6.5-27.9.2-58.5,0-86.5l-8.9-.3c0-7.7,0-15.4,0-23.1Z"/>
  <path class="st2" d="M338.6,311h43s0,22,0,22h-9.2v81c7.5-.5,15-.8,22.5-.9v-17.1c7.6-.1,14.8-.3,22.4,0v19.4c0,0,0,17.6,0,17.6-26.3,0-52.5.4-78.8,1.5v-19.6s9-.5,9-.5v-81.1c0,0-9-.2-9-.2v-22.2Z"/>
  <path class="st2" d="M418.4,441.4c1.3,1.4,6.1,15.2,7.2,18.1h20.4c-5.4,4.1-10.9,8.4-16.3,12.5,1.9,6.2,3.6,12.5,5.3,18.7-5.9-3.7-10.7-7.1-16.4-11.2-5.5,3.8-11,7.6-16.5,11.3l5.4-18.8c-5-4.1-11.1-8.5-16.3-12.4l20.5-.2,6.7-18.1Z"/>
  <path class="st2" d="M285.8,280.8c-12.3-19.3-20.7-37-25.8-59.5-9.9-43.2-2.1-88.5,21.4-126,23.4-36.5,60.3-62.3,102.5-71.9,40.7-9.2,83.3-1.7,118.4,20.8,80.8,51.4,99.2,155,48.2,234.2-4.5.3-9.4.4-13.8,1-3.2,0-7.1,0-10.2.5l-6.8.3c-3.2.4-5.9.2-8.7.6-13.1.8-26.6,1-39.7,1.5-33.1,1.2-66.2,1.7-99.3,1.6-16.5-.1-33.2-.9-49.6-1-2.7-.2-5.5-.3-8.1-.4l-10.8-.6c-3.5-.2-7-.5-10.5-.7l-7.1-.4Z"/>
  <g>
    <path class="st1" d="M320.2,57.2c-.6-.8-1.2-1.6-1.7-2.5-2.7,2.1-5.3,4.3-7.8,6.5,0,0,0,0,.1.1-.4,4.1-14.3,9.1-9.9,18,5.7-2.6,8.5-9.7,16-7,2.2,2.1,2.4,2.7,3.9,5.4-6.3,1.7-12.6,3.5-13.6,11.8l.8,1.3c3.8.6,10.1-3.6,16.6-4.9l3.5,9.5c-5.8,1.2-14.6,2.3-14.7,10.3,1.1,2.2.3,1.5,2.5,2.3,6.1-1.3,7.5-2.9,14-3.2h1.2c.2,0,.5,0,.7,0l3.5,11.4c-6,.1-15.1-.8-16.8,7,3.1,6.7,14.9-.7,19.2,4.8.8,4,1.2,6.9,1.7,10.9-5.4-1.2-15-4-17.4,3,.3,1.5.4,3.5,2.1,3.9,5.8,1.6,10.5,1.5,16.5,3.3.4,4,.8,7.9.9,11.9-3.8-1.1-16.8-4.8-18.9.4,2.3,6.1,13.2,7.7,19,10.6l-.3,12.2c-4.9-2.5-12.5-6.7-18.1-4.4-1.8,5.3,13.5,12.9,17.1,16l-1.3,12.1c-3.5-2.7-11.5-9.7-16.1-8.5-2.6,6.1,10.2,15.5,14.3,18.9l-3.6,11.1c-4.1-4.1-8.2-9.1-13.8-9.4-4.6,4.3,8.3,16.8,10.9,20.2l-3.8,9.4c-3.8-4.9-6.7-9.8-12.2-12l-1.4.4c-2.1,6,6.3,15.8,9.7,20.4l-4,8.2c-3.7-5.3-5.6-9.3-10.9-12.5h-1.8c-3.4,5.4,4.7,16.1,7.8,20.3l-3.7,6.6-.6-.9c-3.7-5.4-6.4-13.5-10.9-15l-1.2.5c-1.8,4.9,1.1,11.1,3.1,16.2.9,0,1.9.1,2.8.2l10.8.6c2.7.1,5.5.2,8.1.4,7.2,0,14.4.2,21.7.4,0,0,0,0,0-.1-2.4-4.9-12.7-6.2-17.9-8.8,1.4-2.8,2.7-5.6,4.4-8.2,4.5.9,22.6,5.1,23.8-1.9-3.3-5.9-14.1-6.4-19.8-7.6l4.1-10.2c4.4-.2,24.2.3,23.6-6.8-4.9-4.7-14.1-3.7-20.3-3.5l3-12.6c4.8-1,20-3.1,22.4-6.7.6-2.4.6-2.2-.1-4.6-4.2-4.7-14.9-.5-20.1,1.2.5-5.5.9-9,2-14.4,4.7-1.5,24.6-6.1,22.3-13.5-6-3.7-15.5.5-21.6,3.1l.6-13.6c6.9-3.6,17.8-7.9,20.8-15.3v-2c-6.1-3.9-15.5,3-20.6,6.4-.2-3.8-.3-9.6-.8-13.2,4.6-3.6,17-11.9,18.9-16.4-.1-3.1.4-1.8-1.4-4.1-6.8-2.7-13.8,5.1-18.6,9.6-.5-4.2-1.2-9.4-1.5-13.6,5.2-6,10.9-10.7,15.9-16.7,1.1-1.3-.2-5-1.9-6.3-5.7-.2-12.8,7.5-16.3,12l-3.8-12,.6-1c2.8-4.6,17.1-18.8,11.8-22.4-7.5,0-11.6,6.9-15.9,12.8-1.2-3.4-2.4-6.8-3.8-10.1,3.2-6.8,10.6-14.9,11.3-21.4-.9-2.3-.2-1.5-2.3-2.4-6.2,1.8-9.8,8.4-12.9,14l-4.8-8c3.3-8.1,6.6-11.1,10.1-18.5-.2-.6-.3-1.2-.5-1.8-.4-.3-.7-.6-.9-.8-3.4,2.1-6.7,4.3-9.9,6.6-1.4,2.1-2.7,4.3-3.8,6.6Z"/>
    <path class="st1" d="M517.6,272.1c-1.6-2.4-1.4-1.2-1-3.8,4.5-4.7,9.7-5.1,11.8-10.8,0-2.7,0-2.5-1.4-4.8-5.5-1.4-12.1,16.7-21.1-.9,5.6-1.1,13.7-3.1,14.9-10.1-.7-2.9,0-1.9-1.7-3.5-5.1,1-7.9,3.9-15.9,5.5-1.4-3.6-2.9-7.2-3.9-10.9,5.8-.5,14.7-.7,15.9-8.4-1-2.5-.2-1.7-2.2-2.7-8.1,1-8,2-16.6,1.8-.8-4-1.8-8.1-2.5-12.1,5.5.6,14.9,2,17.1-5.1-.6-2.5,0-1.5-1.9-3-5-1-11.3-.3-17.1-1l-1.9-13.2c5.8,1.4,12.5,3.3,18.1-.2l.6-1.4c-2.9-6-13.7-6.9-19.6-7.9-.2-4.3-.4-8.7-.4-13,5.6,2.5,11.9,5.7,17.9,3,2.5-6.6-13.2-11.2-17.6-12.9l.6-13.3c3.7,2.8,12.7,9.1,17,5.9,1.3-6.9-11-12.9-15.9-15.8.7-4.2,1.4-8.7,2-12.9,3.5,3.4,12.1,12.8,16.6,8.3,1.2-7.4-9.3-13.6-14.3-18.2,1-3.5,2-7.1,2.9-10.6,3.3,3.6,10,11.6,15.2,10.9,3.2-6.2-8.5-16.1-11.8-20.4,1.1-3.3,2.3-6.8,3.5-10,3.8,5.6,5.8,9.6,11.6,12.6l1.6-.2c3-6.4-5.6-16.3-9.2-21l4.3-6.8c3.2,5.4,5,10.3,10.4,12.6l1.7-.4c3.6-6.8-3.7-14.6-6.6-19.4-.1-.2,0-.9.5-1.6-3.5-2.9-7.2-5.7-11.1-8.3-6,0-14.6-3.7-20.2-2.3l-.3,2.5c6.6,6.6,9.9,5.7,17.6,9.4l-3.4,6.7c-5.7-.7-18.6-3.4-22.7,1.3.5,6.3,13.7,7,18.5,8l-4,9.7c-6.6.2-18.9-.7-23.4,4.8.6,6.1,16.4,5.2,20.5,5.1-1,3.7-2.4,8.4-3.3,12.1-5,.6-23.4,2.4-23.2,9.6,4,5,15.3,1.8,20.6.5l-2.1,13.6c-5,1.4-24,5.4-22.4,13,5.6,3.8,15.3-.2,21.2-2.3-.3,4.4-.6,8.8-.8,13.2-4.9,2.6-18.2,8.7-20.9,12.9-.4,2.4-.4,2.2.6,4.4,5.5,3.9,14.6-2.9,20-5.9v13.5c-3.8,2.8-7.8,5.6-11.7,8.5-3.8,2.8-10.5,6.7-5.1,11.8,5.7.9,12.2-4.7,16.7-8.3.4-.3.8-.6,1.2-.9.5,4.9.8,8.3,1.8,13.1-4.6,4.8-16.1,14-17,18.6,1,3,.1,1.9,2.4,3.7,4.3.3,8.5-3.4,11.7-6.4,1.7-1.6,3.3-3.3,4.9-5l2.5,13.4c-3.3,4.2-14.3,15.7-14.5,19.8,1.2,2.7.3,1.8,2.6,3.1,4.8-.3,9.1-5.3,12.2-9.1.9-1.1,1.8-2.2,2.7-3.4,1.3,3.4,2.7,7,3.8,10.4-3,4.9-10.6,15.3-12.5,19.2.9,2.9.1,1.7,2.4,3.6,5.8.8,11.2-8.9,14.1-13.4l4,10.1c-2,3.6-6.5,10.6-8.9,15,3.2-.1,6.3-.2,9.4-.4,1.8-2.8,3.2-6,4.3-8.3,1.4,2.6,2.8,5.2,4.1,7.9,2.8-.3,5.4-.1,8.5-.6l6.8-.3c.3,0,.6,0,.9,0,1.9-4.2,8-6.2,8.8-14.1l-.8-1.7c-6.1-.4-10.6,11.2-17.8,8Z"/>
    <path class="st1" d="M531.3,67.5c-.8-.8-1.5-1.5-2.3-2.3.7,1,1.5,1.8,2.3,2.3Z"/>
  </g>
  <path class="st0" d="M385.8,127.6s0,0,0,0c.9,0,1.8,0,2.7.1,1,.1,1.8.5,2.7.9,6.5,3.6,62.7,37.5,65.3,41.1,1.3,1.8,1.7,4.3,1.3,6.5-.4,2-2.1,3.6-3.6,4.8-6,5-19,12-26.2,16.4-11.2,6.5-21.9,13.7-33.1,20.3-3.5,2.1-7.2,4.6-11.5,2s-1.5-1.1-2-1.8c-1.3-1.7-1.5-3.5-1.6-5.4-.5-9.3-.5-77.4.6-80.4.9-2.4,3.3-3.6,5.4-4.6Z"/>
  <path class="st2" d="M475.5,448.8c1,1.1,4.9,12.2,5.8,14.6h16.4c-4.4,3.3-8.8,6.8-13.1,10.1,1.5,5,2.9,10,4.3,15.1-4.8-3-8.6-5.7-13.2-9-4.4,3.1-8.8,6.1-13.3,9.1l4.4-15.1c-4-3.3-8.9-6.8-13.1-10h16.5c0-.1,5.4-14.7,5.4-14.7Z"/>
  <path class="st2" d="M362.6,448.8c1,1.1,4.9,12.2,5.8,14.6h16.4c-4.4,3.3-8.8,6.8-13.1,10.1,1.5,5,2.9,10,4.3,15.1-4.8-3-8.6-5.7-13.2-9-4.4,3.1-8.8,6.1-13.3,9.1l4.4-15.1c-4-3.3-8.9-6.8-13.1-10h16.5c0-.1,5.4-14.7,5.4-14.7Z"/>
  <g>
    <path class="st1" d="M314.7,463.9c-32.1,1.6-63.6,3.9-96.8,7.9-18,2.1-36,4.6-53.9,7.5-8.6,1.4-20.7,4-28.8,4.9,0,3.1,0,7.6.5,10.5,59.3-9.4,119.1-15.8,179-19.2v-11.7Z"/>
    <path class="st1" d="M697,481.1c-39.8-6.2-79.9-11-120.1-14.2-17.2-1.5-35.8-2.8-54.4-3.8v11.7c5.9.3,11.7.6,17.2.9,52.6,2.8,105.1,8.1,157.3,15.7v-10.3Z"/>
  </g>
</svg>